<?xml version="1.0" standalone="no"?>
<!DOCTYPE svg PUBLIC "-//W3C//DTD SVG 20010904//EN"
 "http://www.w3.org/TR/2001/REC-SVG-20010904/DTD/svg10.dtd">
<svg version="1.0" xmlns="http://www.w3.org/2000/svg"
 width="144.000000pt" height="144.000000pt" viewBox="0 0 144.000000 144.000000"
 preserveAspectRatio="xMidYMid meet">
<metadata>
Created by potrace 1.13, written by Peter Selinger 2001-2015
</metadata>
<g transform="translate(0.000000,144.000000) scale(0.080000,-0.080000)"
fill="#000000" stroke="none">
<path d="M0 900 l0 -900 900 0 900 0 0 900 0 900 -900 0 -900 0 0 -900z m1046
580 c76 -33 143 -65 148 -70 6 -6 -46 -36 -140 -80 l-148 -71 -146 70 c-79 38
-146 74 -147 78 -3 7 265 129 288 132 3 1 68 -26 145 -59z m-405 -195 c82 -42
148 -79 145 -83 -2 -4 -50 -29 -105 -57 l-101 -49 7 -124 6 -124 -139 92 c-76
51 -140 94 -142 95 -7 6 -29 231 -23 237 6 7 181 86 194 87 4 1 75 -33 158
-74z m780 34 c52 -22 97 -44 101 -47 5 -6 -19 -233 -25 -238 -1 -1 -64 -43
-140 -93 l-139 -92 7 123 7 123 -102 50 c-56 28 -104 53 -106 57 -4 6 279 156
297 157 3 1 48 -17 100 -40z m-946 -502 c66 -44 121 -81 123 -82 6 -5 24 -306
19 -312 -4 -4 -211 142 -249 176 -7 6 -38 241 -38 289 0 16 4 21 13 16 6 -4
66 -43 132 -87z m990 -70 c-10 -72 -19 -135 -22 -140 -10 -16 -245 -188 -250
-183 -6 5 13 306 19 311 2 1 62 41 133 89 95 63 131 82 133 71 2 -8 -4 -75
-13 -148z m-647 -156 l89 -60 98 65 c53 36 99 63 103 60 6 -7 -16 -304 -24
-317 -3 -5 -44 -39 -91 -74 l-85 -64 -52 37 c-147 106 -134 91 -140 157 -3 33
-9 107 -12 164 -8 122 -16 120 114 32z"/>
</g>
</svg>
