<?xml version="1.0" standalone="no"?>
<!DOCTYPE svg PUBLIC "-//W3C//DTD SVG 20010904//EN"
 "http://www.w3.org/TR/2001/REC-SVG-20010904/DTD/svg10.dtd">
<svg version="1.0" xmlns="http://www.w3.org/2000/svg"
 width="45.600000pt" height="45.600000pt" viewBox="0 0 45.600000 45.600000"
 preserveAspectRatio="xMidYMid meet">
<metadata>
Created by potrace 1.13, written by Peter Selinger 2001-2015
</metadata>
<g transform="translate(0.000000,45.600000) scale(0.080000,-0.080000)"
fill="#000000" stroke="none">
<path d="M0 285 l0 -285 285 0 285 0 0 285 0 285 -285 0 -285 0 0 -285z m346
184 c3 -6 -3 -23 -14 -38 l-20 -28 34 -27 c35 -27 45 -56 21 -56 -8 0 -22 9
-32 20 -35 38 -54 36 -106 -16 -27 -27 -49 -54 -49 -61 0 -23 81 -103 105
-103 12 0 32 11 45 25 13 14 29 25 37 25 24 0 13 -28 -24 -60 -51 -45 -91 -38
-155 29 -39 40 -48 56 -48 86 0 31 10 46 86 125 85 88 106 102 120 79z m92
-206 c-3 -15 -17 -18 -87 -21 -46 -2 -88 1 -94 7 -21 21 7 31 94 31 81 0 90
-2 87 -17z"/>
</g>
</svg>
