<?xml version="1.0" standalone="no"?><!DOCTYPE svg PUBLIC "-//W3C//DTD SVG 1.1//EN" "http://www.w3.org/Graphics/SVG/1.1/DTD/svg11.dtd"><svg t="1548304099452" class="icon" style="" viewBox="0 0 1024 1024" version="1.1" xmlns="http://www.w3.org/2000/svg" p-id="2151" xmlns:xlink="http://www.w3.org/1999/xlink" width="200" height="200"><defs><style type="text/css"></style></defs><path d="M840.9088 153.6H631.1936c-48.9472 0-92.4672 23.552-119.808 60.0064-27.3408-36.4544-70.8608-60.0064-119.808-60.0064H181.76c-33.0752 0-59.904 26.8288-59.904 54.784v554.2912c0 38.1952 26.8288 65.024 59.904 65.024h220.2624c29.3888 28.7744 68.5056 44.9536 109.2608 44.9536s79.872-16.1792 109.2608-44.9536h220.2624c33.0752 0 59.904-26.8288 59.904-65.024V208.384c0.1024-27.8528-26.7264-54.784-59.8016-54.784z m-13.312 604.9792H607.6416c-8.704 0-17.1008 3.7888-22.7328 10.4448-18.7392 21.9136-45.568 34.5088-73.6256 34.5088-27.9552 0-54.784-12.5952-73.6256-34.5088a29.99296 29.99296 0 0 0-22.7328-10.4448H196.096V223.744h192.3072c49.5616 0 89.9072 40.3456 89.9072 89.9072V558.08c0 16.5888 16.4864 30.0032 33.0752 30.0032s33.0752-13.4144 33.0752-30.0032V313.6512c0-49.5616 40.3456-89.9072 89.9072-89.9072l193.3312 5.12v529.7152h-0.1024z" fill="" p-id="2152"></path></svg>