<?xml version="1.0" standalone="no"?><!DOCTYPE svg PUBLIC "-//W3C//DTD SVG 1.1//EN" "http://www.w3.org/Graphics/SVG/1.1/DTD/svg11.dtd"><svg t="1583916689186" class="icon" viewBox="0 0 1024 1024" version="1.1" xmlns="http://www.w3.org/2000/svg" p-id="1763" xmlns:xlink="http://www.w3.org/1999/xlink" width="300" height="300"><defs><style type="text/css"></style></defs><path d="M544.059897 959.266898h-64.949141c-228.633593 0-415.697442-187.063849-415.697442-415.697442v-64.949141c0-228.633593 187.063849-415.697442 415.697442-415.697442h64.949141c228.633593 0 415.697442 187.063849 415.697442 415.697442v64.949141C959.756315 772.203049 772.692466 959.266898 544.059897 959.266898z" fill="#1D2FE3" p-id="1764" data-spm-anchor-id="a313x.7781069.0.i0" class="selected"></path><path d="M440.242021 484.329499c-18.555874 26.287232-49.924648 72.898587-101.39434 108.243109-34.903227 24.078711-33.136001 83.059625-18.555874 112.881309 14.580127 29.821684 62.957685 52.133169 113.764923 41.529813 50.587102-10.824516 74.444654-21.648007 137.402339-3.092134 62.957685 18.334715 113.544787 5.301678 134.309181-38.437679 20.765418-43.739357-3.093158-93.662982-42.192267-119.0666-39.100133-25.403619-65.166205-69.142976-89.90737-106.696018C549.368743 442.136209 484.202537 422.917881 440.242021 484.329499z" fill="#FFFFFF" p-id="1765"></path><path d="M280.529221 437.496984a75.328267 59.202073 90 1 0 118.404146 0 75.328267 59.202073 90 1 0-118.404146 0Z" fill="#FFFFFF" p-id="1766"></path><path d="M394.515302 320.638904a75.328267 59.202073 90 1 0 118.404147 0 75.328267 59.202073 90 1 0-118.404147 0Z" fill="#FFFFFF" p-id="1767"></path><path d="M541.195066 332.125874a75.328267 59.202073 90 1 0 118.404147 0 75.328267 59.202073 90 1 0-118.404147 0Z" fill="#FFFFFF" p-id="1768"></path><path d="M625.603148 477.259571a75.328267 59.202073 90 1 0 118.404147 0 75.328267 59.202073 90 1 0-118.404147 0Z" fill="#FFFFFF" p-id="1769"></path></svg>