<?xml version="1.0" standalone="no"?><!DOCTYPE svg PUBLIC "-//W3C//DTD SVG 1.1//EN" "http://www.w3.org/Graphics/SVG/1.1/DTD/svg11.dtd"><svg t="1585015728856" class="icon" viewBox="0 0 1000 1000" version="1.1" xmlns="http://www.w3.org/2000/svg" p-id="2657" xmlns:xlink="http://www.w3.org/1999/xlink" width="300" height="300"><defs><style type="text/css"></style></defs><path d="M182.0002 523.6006c108.0399-23.2122 93.3366-152.3386 90.0901-180.5509-5.2988-43.5176-56.4651-119.5745-125.9573-113.5675-87.4382 7.8369-100.203 134.1666-100.203 134.1666C34.0984 422.0158 74.2188 546.7803 182.0002 523.6006zM296.7217 748.1188c-3.1728 9.1097-10.2265 32.3181-4.1071 52.5474 12.0565 45.3426 51.4287 47.3986 51.4287 47.3986h56.57754211088418V709.7525269432355h-60.56847351557962C312.8091 717.893 299.6684 739.0516 296.7217 748.1188zM382.5236 307.0692c59.6741 0 107.8938-68.6672 107.8938-153.6077C490.4174 68.6709 442.1989 0 382.5236 0c-59.5667 0-107.9313 68.6709-107.9313 153.4615C274.5923 238.402 322.9582 307.0692 382.5236 307.0692zM639.5121 317.2219c79.7524 10.3351 131.03-74.7903 141.2215-139.2779 10.4114-64.4152-41.0535-139.2792-97.5186-152.1162-56.575-12.9907-127.2239 77.6245-133.6419 136.7372C541.8835 234.8171 559.9071 306.9605 639.5121 317.2219zM834.9216 696.3946c0 0-123.3829-95.4655-195.4095-198.6167-97.6273-152.1525-236.3506-90.243-282.7391-12.8783-46.2036 77.3659-118.1978 126.2922-128.4193 139.2429-10.3764 12.7646-149.061 87.6273-118.2702 224.3683 30.7908 136.6635 138.9081 134.0517 138.9081 134.0517s79.6787 7.8406 172.1197-12.8358c92.4797-20.5253 172.0847 5.1126 172.0847 5.1126s216.0124 72.3245 275.1257-66.9134C927.365 768.6429 834.9216 696.3946 834.9216 696.3946zM465.3339 903.6701H324.8980407587141c-60.6409-12.0901-84.7914-53.5192-87.8517-60.5355-2.9866-7.1624-20.1895-40.4523-11.0834-97.0306 26.2002-84.7906 100.9512-90.9125 100.9512-90.9125h74.75095713652233v-91.88430272355265l63.6688 0.9731V903.67012586001zM726.8779 902.6996H565.282019573676c-62.6245-16.1597-65.5712-60.6441-65.5712-60.6441V663.3282203224694l65.5712-1.043v160.62390390870527c3.9897 17.094 25.2672 20.2255 25.2672 20.2255h66.57797930211788V663.3282203224694h69.75198765871603V902.6995698075875zM955.6513 425.5245c0-30.8642-25.6381-123.7915-120.7285-123.7915-95.2427 0-107.9712 87.7048-107.9712 149.6905 0 59.1889 5.004 141.8174 123.3104 139.1705C968.6047 587.9796 955.6513 456.5748 955.6513 425.5245z" p-id="2658"></path></svg>