<?xml version="1.0" standalone="no"?><!DOCTYPE svg PUBLIC "-//W3C//DTD SVG 1.1//EN" "http://www.w3.org/Graphics/SVG/1.1/DTD/svg11.dtd"><svg t="1548304183257" class="icon" style="" viewBox="0 0 1025 1024" version="1.1" xmlns="http://www.w3.org/2000/svg" p-id="2892" xmlns:xlink="http://www.w3.org/1999/xlink" width="200.1953125" height="200"><defs><style type="text/css"></style></defs><path d="M653.312248 611.118466 370.992731 611.118466c-26.144681 0-47.286367 21.249278-47.286367 47.286367s21.195482 47.340163 47.286367 47.340163l282.319517 0c26.03709 0 47.232572-21.303073 47.232572-47.340163C700.491024 632.367744 679.349337 611.118466 653.312248 611.118466zM439.743558 415.409929l144.602679 0c26.03709 0 47.286367-21.249278 47.286367-47.178776 0-26.090885-21.249278-47.393958-47.286367-47.393958L439.743558 320.837195c-26.090885 0-47.232572 21.303073-47.232572 47.393958C392.457191 394.160651 413.598878 415.409929 439.743558 415.409929zM819.809752 0.107591C619.098221 0 418.332894 0.107591 217.567567 0 198.577706 0 180.01821 1.452482 161.297328 5.594747c-95.272078 20.926504-158.750932 101.888941-159.988232 197.429997C-1.111708 400.831311 0.555957 598.476491 0.609752 796.175466c0 22.378986 0.968322 44.220016 6.186499 66.545206 21.948621 93.012661 98.768794 158.15918 197.860362 160.25721 102.373102 1.990439 204.907591 0.430365 307.226898 0.430365 98.82259 0 197.752771-0.107591 296.575361 0.107591 19.043656 0.053796 37.441765-1.560074 56.216443-5.863725 94.62653-21.84103 159.288889-101.996533 159.342685-199.36664 0.053796-204.853796 0.107591-409.707591 0-614.561387C1023.964205 90.43047 933.426143 0.161387 819.809752 0.107591zM910.670588 497.179301l0 135.780194 0 30.125558c0 137.501655-111.356974 248.858629-248.912424 248.858629L519.845266 911.943683 391.219892 911.943683 362.277837 911.943683c-137.55545 0-248.912424-111.356974-248.912424-248.858629L113.365413 361.022537c0-137.447859 111.356974-248.858629 248.912424-248.858629l68.535645 0 88.977988 0 4.787812 0c0 0.107591 0 0.107591 0 0.107591 135.296034 2.528395 244.178408 112.863252 244.178408 248.751038l0 3.81949 0 20.442343c0 15.062779 12.265406 27.274389 27.166798 27.274389l28.404098 0 13.717888 0c40.077752 0 72.570318 32.492566 72.570318 72.624113L910.670588 497.179301 910.670588 497.179301z" p-id="2893"></path></svg>