<?xml version="1.0" standalone="no"?><!DOCTYPE svg PUBLIC "-//W3C//DTD SVG 1.1//EN" "http://www.w3.org/Graphics/SVG/1.1/DTD/svg11.dtd"><svg t="1585015814056" class="icon" viewBox="0 0 1024 1024" version="1.1" xmlns="http://www.w3.org/2000/svg" p-id="3411" xmlns:xlink="http://www.w3.org/1999/xlink" width="300" height="300"><defs><style type="text/css"></style></defs><path d="M522.208 438.816V614.4h290.4c-11.808 75.392-87.808 220.8-290.4 220.8C347.392 835.2 204.8 690.4 204.8 512s142.592-323.2 317.408-323.2c99.392 0 166.016 42.4 204 79.008l139.008-133.792C776 50.432 660.416 0 522.208 0c-283.008 0-512 228.992-512 512s228.992 512 512 512c295.392 0 491.616-207.808 491.616-500.192 0-33.6-3.616-59.2-8-84.8l-483.616-0.192z" p-id="3412"></path></svg>