<?xml version="1.0" standalone="no"?><!DOCTYPE svg PUBLIC "-//W3C//DTD SVG 1.1//EN" "http://www.w3.org/Graphics/SVG/1.1/DTD/svg11.dtd"><svg t="1584337959550" class="icon" viewBox="0 0 1024 1024" version="1.1" xmlns="http://www.w3.org/2000/svg" p-id="1930" xmlns:xlink="http://www.w3.org/1999/xlink" width="300" height="300"><defs><style type="text/css"></style></defs><path d="M504.964 222.25h-0.007l-15.038-13.251-357.363 314.849c-8.307 7.315-8.307 19.182 0 26.503 8.304 7.319 21.772 7.319 30.079 0l306.017-269.614v624.308c0 10.352 9.52 18.738 21.266 18.738 11.747 0 21.272-8.386 21.272-18.738v-624.308l306.020 269.614c4.149 3.656 9.593 5.487 15.038 5.487 5.438 0 10.882-1.831 15.038-5.487 8.307-7.315 8.307-19.182 0-26.5l-342.324-301.602zM849.206 62h-718.571c-11.749 0-21.266 8.389-21.266 18.738 0 10.348 9.517 18.74 21.266 18.74h718.571c11.749 0 21.275-8.392 21.275-18.74s-9.527-18.738-21.275-18.738v0z" p-id="1931"></path></svg>